<svg version="1.1" xmlns="http://www.w3.org/2000/svg" xmlns:xlink="http://www.w3.org/1999/xlink" x="0px" y="0px"
	 viewBox="0 0 512 256" style="enable-background:new 0 0 512 256;" xml:space="preserve" aria-labelledby="fhooe_title fhooe_desc" role="img">
<title id="fhooe_title">FH Oberösterreich Logo</title>
<desc id="fhooe_desc">The logo of the University of Applied Sciences Upper Austria depicting the letters FH OÖ and the words Sapere Aude above a pentagram in a square.</desc>
<path d="M99.1,224.3C54,202.3-21.9,187,10.8,155.5c52.2-50.2,0-123.8,0-123.8s48.8,3,88.1,3c39.5,0,88.3-3,88.3-3
	s-52.2,73.7,0,123.8C220,187,144.5,202.3,99.1,224.3 M191.9,156.7c-37.7-52.2-1-127.6-1-127.6H7.6c0,0,37.5,75.5-1.4,127.6
	c-28.1,37.7,45.4,60.4,92.7,70.2C146.9,217.1,219.4,194.8,191.9,156.7"/>
<path d="M68.2,71.8h61.6c-8-8.4-19.1-13.4-30.9-13.4C87.3,58.6,76.1,63.4,68.2,71.8 M63.8,72.8v3c0.8-1,1.4-2,2.2-3H63.8z
	 M131.9,72.8c0.8,1,1.6,2,2.2,3v-3H131.9z M134.9,78.6v44.2c4-6.6,6.2-14.3,6.2-22.1C141.1,92.9,139.1,85.2,134.9,78.6 M63,78.6
	c-4,6.6-6.2,14.3-6.2,22.1s2.2,15.5,6.2,22.1V78.6z M63.8,142.9h26.5c-10.6-2.2-20.1-8.2-26.3-17.3v17.3H63.8z M63.8,124.2
	c7.8,11.8,21.1,18.7,35.1,18.7s27.3-7,35.1-18.7v-47c-1-1.6-2.2-3-3.4-4.4H67.4c-1.2,1.4-2.4,3-3.4,4.4v47H63.8z M107.8,142.9h26.3
	v-17.3C127.6,134.6,118.2,140.8,107.8,142.9 M134.9,143.9H63v-19.5c-4.6-7-7-15.3-7-23.7c0-8.4,2.4-16.7,7-23.7v-5h4
	c8.2-9,19.9-14.3,32.1-14.3S123,63,131.3,72h4v5c4.6,7,7.2,15.3,7.2,23.7s-2.4,16.7-7.2,23.7v19.5H134.9z"/>
<path d="M95.3,84.8h7l-3.4-10.6L95.3,84.8z M64.4,85.7l22.7,21.3l6.8-21.3H64.4z M103.6,85.7l6.8,21.5l23.1-21.5H103.6z M87.9,107.7
	l10.8,10l10.8-10l-7-22.1h-7.4L87.9,107.7z M99.6,118.4l19.3,18.1l-8.8-27.7L99.6,118.4z M87.7,108.5l-9,27.7l19.5-18.1L87.7,108.5z
	 M78.1,138.2l-0.8-0.4l9.6-29.9L63,85.7l0.4-0.8h31.1l4-12.2h0.8l3.8,12.2h31.3l0.4,0.8l-24.3,22.5l9.4,29.7l-0.8,0.4L98.7,119
	L78.1,138.2z"/>
<path d="M68.8,65.4l3-2.2c0.6-0.4,0.8-1.4,0.4-2l-0.6-0.8c-0.4-0.6-1.6-0.8-2.2-0.4L68,61c-0.2,0.2-0.6,0.2-0.8,0L67,60.6
	c-0.2-0.2-0.2-0.6,0.2-0.8l0.2-0.2l2.6-2l-0.6-1l-2.8,2c-0.8,0.6-0.8,1.4-0.2,2.2l0.4,0.6c0.2,0.4,0.6,0.6,1,0.6s0.6-0.2,1.2-0.4
	l1.2-1c0.4-0.2,0.6-0.2,1,0.2l0.4,0.4c0.2,0.4,0.2,0.6,0,0.8l-0.2,0.2L68.8,64V65.4z"/>
<path d="M74.3,60c0,0-0.2,0-0.2-0.2c-0.2,0-0.2-0.2-0.2-0.2l-0.6-1c-0.2-0.4,0-0.8,0.4-1l1.4-0.8c0.4-0.2,1-0.2,1.2,0.2l0.6,1
	c0,0,0,0.2,0,0.4s0,0.2,0,0.4c0,0.2-0.2,0.2-0.6,0.4L74.9,60C74.7,60,74.5,60,74.3,60 M70.4,55.7l0.6,1l3.4-1.8
	c0.4-0.2,0.6-0.2,0.8,0l0.2,0.4l-2.4,1.4c-1,0.6-1.2,1.6-0.4,2.8l0.4,0.8c0.4,0.8,1.6,1.2,2.4,0.8l2-1.2c0.8-0.4,1-1.6,0.6-2.4
	l-1.6-3c-0.2-0.4-0.6-0.6-1-0.8s-0.6,0-1.2,0.2L70.4,55.7z"/>
<path d="M80.3,56.3l-1-2.8c-0.2-0.4,0-0.8,0.6-1l1.8-0.8c0.4-0.2,0.6,0,0.8,0.4l1.2,3c0.2,0.4,0,0.8-0.4,0.8l-2,0.8
	C80.7,57,80.5,56.7,80.3,56.3 M80.7,60.6l1-0.4l-0.8-2l2.6-1c1-0.4,1.4-1.4,1-2.4l-1.2-3c-0.4-1-1.2-1.4-2.2-1l-2,0.8
	c-1,0.4-1.4,1.2-1,2.2L80.7,60.6z"/>
<path d="M86.5,51.1c-0.2-0.6,0-0.8,0.6-1l1.8-0.4c0.6-0.2,0.8,0,0.8,0.4v0.2l-2.8,2.2L86.5,51.1z M91.9,54.9l-0.2-1.2l-3.6,0.8
	c-0.4,0-0.6,0-0.6-0.2l-0.2-0.2c0-0.2,0-0.2,0-0.2v-0.2l3.8-3l-0.2-0.8c-0.2-1-1-1.6-2.2-1.4l-1.6,0.4c-1.4,0.2-1.8,1-1.6,2.4l0.6,3
	c0.2,1,1,1.6,2.2,1.4L91.9,54.9z"/>
<path d="M92.9,54.9l1.2-0.2l-0.6-5c0-0.4,0.2-0.8,0.6-0.8h0.6l-0.4-1.2h-0.6c-0.4,0-1,0.4-1.2,0.6c-0.2,0.4-0.2,1-0.2,1.6L92.9,54.9
	z"/>
<path d="M96.9,49.7c0-0.6,0.2-0.8,0.8-0.8h1.8c0.6,0,0.6,0.2,0.6,0.6v0.2l-3.2,1.4V49.7z M101.6,54.3v-1.2h-3.8
	c-0.4,0-0.6,0-0.6-0.2c0,0,0-0.2-0.2-0.4c0-0.2,0-0.2,0-0.2v-0.2l4.4-2.2v-0.8c0-1.2-0.6-1.8-1.8-1.8h-1.6c-1.4,0-2,0.6-2,2v3
	c0,1,0.8,1.8,1.8,1.8L101.6,54.3z"/>
<path d="M107.4,53.9l-0.2-0.2c0-0.2,0-0.2,0-0.4l0.2-1c0-0.4,0.4-0.6,1-0.6l1.6,0.4c0.6,0.2,0.8,0.4,0.8,1l-0.2,1c0,0,0,0.2-0.2,0.2
	c0,0.2-0.2,0.2-0.2,0.2c-0.2,0-0.4,0-0.6,0l-1.4-0.4C107.6,54.1,107.6,54.1,107.4,53.9 M107.2,48.1l-0.2,1.2l3.8,0.8
	c0.4,0.2,0.6,0.2,0.6,0.6v0.4l-3-0.6c-1-0.2-1.8,0.4-2.2,1.8v0.8c-0.2,1,0.4,2,1.4,2.2l2.2,0.4c0.8,0.2,1.8-0.4,2-1.4l0.8-3.4
	c0-0.4,0-1-0.2-1.2c-0.2-0.4-0.4-0.4-1-0.6L107.2,48.1z"/>
<path d="M120,51.7l-1-0.4l-1.6,4.6c-0.2,0.6-0.4,0.6-1,0.4l-1.6-0.6c-0.2,0-0.4-0.2-0.6-0.4c0-0.2,0-0.2,0-0.2s0-0.2,0-0.4l1.6-4.6
	l-1-0.4l-1.6,4.8c-0.2,0.6-0.2,1,0.2,1.6c0.2,0.4,0.4,0.6,1.2,0.8l1.6,0.6c0.6,0.2,1,0.2,1.4,0s0.8-0.6,1-1.2L120,51.7z"/>
<path d="M121,58l1.4-2.8c0.2-0.4,0.6-0.6,1-0.4l1.6,1c0.4,0.2,0.6,0.6,0.2,1l-1.4,2.6c-0.2,0.4-0.6,0.6-1,0.4l-1.8-1
	C120.8,58.6,120.8,58.2,121,58 M128.3,53.7l-0.8-0.6l-1,2l-2.2-1.2c-1-0.6-1.8-0.4-2.4,0.6l-1.6,3c-0.2,0.4-0.4,0.8-0.2,1.2
	c0.2,0.4,0.4,1,0.8,1.2l2,1c0.8,0.4,1.8,0,2.4-0.8L128.3,53.7z"/>
<path d="M128.9,59.2c0.4-0.4,0.6-0.6,1.2-0.2l1.4,1c0.4,0.4,0.4,0.6,0.2,0.8l0,0l-3.6-0.8L128.9,59.2z M129.7,65.8l0.6-1l-3-2.2
	c-0.2-0.2-0.4-0.4-0.4-0.6c0-0.2,0-0.2,0-0.4s0.2-0.2,0.2-0.2l0.2-0.2l4.8,1l0.4-0.6c0.6-1,0.4-1.8-0.4-2.4l-1.4-1
	c-1.2-0.8-2-0.8-2.8,0.4L126,61c-0.6,0.8-0.4,1.8,0.4,2.6L129.7,65.8z"/>
<path d="M27.7,175.6H59v-3.4H27.7v-1.4c0-4.6,3.6-8,7.8-8H59v-3.4H35.5c-6.2,0-11.2,4.8-11.2,11.4v12.8h3.4V175.6z"/>
<path d="M66.2,162.5v-10.2h-3.4v31.3h3.4v-14.7c0.6-3.6,3.6-6.2,7.6-6.2h12.4c4.4,0,7.8,3.6,7.8,7.8v13h3.4v-13
	c0-6.2-5-11.2-11.2-11.2H73.9C70.8,159.5,68.2,160.5,66.2,162.5"/>
<path d="M137.7,172.6c0,4.2-3.4,7.8-7.6,7.8h-6.2h-0.2h-6.2c-4.2,0-7.6-3.6-7.6-7.8v-1.8c0-4.2,3.4-7.8,7.6-7.8h6.2h0.2h6.2
	c4.2,0,7.6,3.6,7.6,7.8V172.6z M137.7,162.5c-2-2-4.6-3.2-7.6-3.2h-6.2h-0.2h-6.2c-3,0-5.6,1.2-7.6,3.2c-2,2-3.2,4.8-3.2,8v1.8
	c0,3.2,1.2,6,3.2,8c2,2,4.6,3.2,7.6,3.2h6.2h0.2h6.2c3,0,5.6-1.2,7.6-3.2c2-2,3.2-4.8,3.2-8v-1.8
	C140.9,167.5,139.7,164.7,137.7,162.5"/>
<path d="M174.8,172.6c0,4.2-3.4,7.8-7.6,7.8H161h-0.2h-6.2c-4.2,0-7.6-3.6-7.6-7.8v-1.8c0-4.2,3.4-7.8,7.6-7.8h6.2h0.2h6.2
	c4.2,0,7.6,3.6,7.6,7.8V172.6z M174.8,162.5c-2-2-4.6-3.2-7.6-3.2H161h-0.2h-6.2c-3,0-5.6,1.2-7.6,3.2c-2,2-3.2,4.8-3.2,8v1.8
	c0,3.2,1.2,6,3.2,8c2,2,4.6,3.2,7.6,3.2h6.2h0.2h6.2c3,0,5.6-1.2,7.6-3.2c2-2,3.2-4.8,3.2-8v-1.8C178,167.5,176.8,164.7,174.8,162.5
	"/>
<rect x="155.1" y="151.9" width="3.2" height="4.4"/>
<rect x="163.2" y="151.9" width="3.2" height="4.4"/>
<g>
	<path d="M244.5,182.6c0,4.2-1.6,5.8-6,5.8H234c-4.4,0-6-1.6-6-5.8v-20.9h-2.2V183c0,2.4,0.2,4,2.2,6c1.4,1.4,2.6,1.6,4.8,1.6h7
		c1.8,0,2.8-0.2,4.4-1.6c2-1.6,2.4-3.4,2.4-6v-21.3h-2.2V182.6z"/>
	<path d="M265.9,177.2h-11.8v-13.2h11.8c2.4,0,4.6,1.4,4.6,4v4.4c0,1.4-0.4,2.6-1,3.4C268.7,177,267.5,177.2,265.9,177.2
		 M265.9,161.7h-14v28.7h2.2v-11h11.6c4.4,0,7-2.6,7-7v-4.8c0-1.4-0.6-2.8-1.6-3.8C269.7,162.3,268.1,161.7,265.9,161.7"/>
	<path d="M291,177.2h-11.8v-13.2H291c2.4,0,4.6,1.4,4.6,4v4.4c0,1.4-0.4,2.6-1,3.4C293.8,177,292.6,177.2,291,177.2 M291,161.7h-14
		v28.7h2.2v-11h11.6c4.4,0,7-2.6,7-7v-4.8c0-1.4-0.6-2.8-1.6-3.8C294.8,162.3,293.4,161.7,291,161.7"/>
	<path d="M302.1,168.5V184c0,3.8,2.6,6.4,6.6,6.4h12.2v-2.2h-12c-2.8,0-4.6-1.8-4.6-4.6v-6.4h16.7V175h-16.7v-6.6
		c0-1.4,0.2-2.4,1.2-3.4c0.8-0.8,2-1.2,3.4-1.2h12v-2.2h-11.8C304.9,161.7,302.1,164.3,302.1,168.5"/>
	<path d="M329,176.4c-0.2,0-0.8,0-1.2,0.2v-12.6h11.4c3.4,0,5,1.4,5,4.4v4c0,2.6-1.6,4-4.4,4c-1.8,0-3.6,0-5.4,0
		S330.8,176.4,329,176.4 M340,178.6c4,0,6.6-2.4,6.6-6.4v-3.8c0-4.2-2.6-6.6-7.2-6.6h-13.4v28.7h2.2v-11.6c0.2,0.2,0.2,0.2,0.4,0.4
		l15.1,11.2h3.6l-15.9-11.8L340,178.6L340,178.6z"/>
	<path d="M362.7,180l6-15.7l6,15.7H362.7z M368.7,161.3c-0.8,0-1.2,0.4-1.6,1.2l-11.2,27.9h2.6l3.2-8.2h14l3.2,8.2h2.6l-11.2-27.9
		C370.3,162.3,369.9,161.3,368.7,161.3"/>
	<path d="M402.8,182.6c0,4.2-1.6,5.8-6,5.8h-4.4c-4.4,0-6-1.6-6-5.8v-20.9h-2.2V183c0,2.4,0.2,4,2.2,6c1.4,1.4,2.6,1.6,4.8,1.6h7
		c1.8,0,2.8-0.2,4.4-1.6c2-1.6,2.4-3.4,2.4-6v-21.3h-2.2L402.8,182.6L402.8,182.6z"/>
	<path d="M411.6,163.5c-1.4,1.4-2,2.8-2,5v2.2c0,4,2.8,6.2,7.6,6.2h4.2c3.4,0,5,1.4,5,4.4v2.8c0,1.2-0.2,2.2-1.2,3
		c-1.2,1-2.4,1.2-3.8,1.2h-11.8v2.2h11.8c2.2,0,3.4,0,5.2-1.6c1.4-1.2,2-2.6,2-4.8v-2.8c0-4.2-2.6-6.4-7.2-6.4h-5.4
		c-2.6,0-4.2-1.6-4.2-4.2v-2.2c0-3,1.6-4.4,5-4.4h11.8v-2.2h-11.8C414.7,161.7,413.3,161.9,411.6,163.5"/>
</g>
<polygon points="431.9,163.9 440.1,163.9 440.1,190.4 442.4,190.4 442.4,163.9 450.6,163.9 450.6,161.7 431.9,161.7 "/>
<g>
	<path d="M457.6,176.4c-0.2,0-0.8,0-1.2,0.2v-12.6h11.4c3.4,0,5,1.4,5,4.4v4c0,2.6-1.6,4-4.4,4c-1.8,0-3.6,0-5.4,0
		S459.4,176.4,457.6,176.4 M468.6,178.6c4,0,6.6-2.4,6.6-6.4v-3.8c0-4.2-2.6-6.6-7.2-6.6h-13.4v28.7h2.2v-11.6
		c0.2,0.2,0.2,0.2,0.4,0.4l15.1,11.2h3.6L460,178.6L468.6,178.6L468.6,178.6z"/>
</g>
<rect x="479.9" y="161.7" width="2.2" height="28.7"/>
<path d="M492.1,180l6-15.7l6,15.7H492.1z M500,162.7c-0.2-0.4-0.4-1.2-1.6-1.2c-0.8,0-1.2,0.4-1.6,1.2l-11.2,27.9h2.6l3.2-8.2h14
	l3.2,8.2h2.6L500,162.7z"/>
<path d="M235.4,151.9h-3.8c-1.2,0-2.2,0-3-0.8c-0.6-0.6-1-1.6-1-2.8v-10.4c0-1.4,0.2-2.2,1-2.8c0.8-0.8,1.4-0.8,2.6-0.8h4
	c1.2,0,2.2,0,2.8,0.8s1,1.6,1,2.8v10.4c0,1.2-0.4,2-1,2.8C237.6,151.9,236.6,151.9,235.4,151.9 M235.4,132.2h-3.6
	c-3.8,0-5.8,1.8-5.8,5.4v10.6c0,3.4,2,5.4,5.8,5.4h3.6c3.8,0,5.8-1.8,5.8-5.4v-10.6C241.2,134.2,239.2,132.2,235.4,132.2"/>
<path d="M244.7,136.8v16.9h1.8v-9.6h12.2v-1.8h-12.2V137c0-2.2,1.8-3,3.4-3h9v-1.8h-9C247.3,132.2,244.7,133.8,244.7,136.8"/>
<path d="M269.3,145.9l4.4-11.2l4.2,11.2H269.3z M273.8,132c-0.6,0-1,0.4-1.2,1l-8.2,20.7h2l2.4-6H279l2.4,6h2.2l-8.2-20.7
	C274.8,132.4,274.4,132,273.8,132"/>
<path d="M296,143.7h-8.6V134h8.6c1.6,0,3.4,1,3.4,2.8v3.2c0,1-0.2,1.8-0.8,2.6C298,143.5,297.2,143.7,296,143.7 M296,132.2h-10.4
	v21.5h1.8v-8.2h8.4c3.4,0,5.2-2,5.2-5.2v-3.6c0-1-0.4-2.2-1.2-3C298.9,132.8,297.6,132.2,296,132.2"/>
<path d="M314.3,143.7h-8.6V134h8.6c1.6,0,3.4,1,3.4,2.8v3.2c0,1-0.2,1.8-0.8,2.6C316.3,143.5,315.5,143.7,314.3,143.7 M314.3,132.2
	h-10.4v21.5h1.8v-8.2h8.4c3.4,0,5.2-2,5.2-5.2v-3.6c0-1-0.4-2.2-1.2-3S316.1,132.2,314.3,132.2"/>
<path d="M324.1,148.5v-16.3h-1.8v16.3c0,1.6,0.2,3,2,4.2c1.2,0.8,2.2,0.8,3.4,0.8h8.8v-1.8h-8.8
	C325.3,151.9,324.1,150.9,324.1,148.5"/>
<rect x="338.8" y="132.2" width="1.8" height="21.5"/>
<path d="M344.2,137.4v11.4c0,3,2,4.8,5,4.8h9v-1.8h-9c-2,0-3.4-1.2-3.4-3.2v-4.6h12.2v-1.8h-12.2v-4.8c0-1,0.2-1.8,1-2.4
	c0.6-0.6,1.4-0.8,2.4-0.8h9v-1.8h-8.8C346.2,132.2,344.2,134.2,344.2,137.4"/>
<path d="M363.3,134.2h8.8c1.2,0,1.8,0.2,2.4,1c0.6,0.8,0.8,1.2,0.8,2.2v11c0,2.2-1.2,3.6-3.4,3.6h-8.6V134.2z M372.1,132.2h-10.6
	v21.5h10.6c3,0,5-2.2,5-5.4v-10.8c0-1.4-0.2-2.4-1.4-3.6C374.7,132.6,373.9,132.2,372.1,132.2"/>
<path d="M387,133.6c-1,1-1.6,2.2-1.6,3.8v1.6c0,3,2,4.6,5.6,4.6h3.2c2.4,0,3.6,1,3.6,3.2v2c0,0.8-0.2,1.6-0.8,2.2
	c-0.8,0.8-1.6,0.8-2.8,0.8h-8.8v1.8h8.8c1.6,0,2.6,0,3.8-1.2c1-1,1.6-2,1.6-3.6v-2c0-3-2-4.8-5.4-4.8h-4c-1.8,0-3-1.2-3-3v-1.6
	c0-2.2,1.2-3.2,3.6-3.2h8.8v-1.8h-8.8C389.4,132.2,388.4,132.4,387,133.6"/>
<path d="M404.4,133.4c-1,0.8-1.6,2.2-1.6,3.8v11.4c0,1.6,0.2,2.8,1.6,4c1.2,1,2,1.2,3.2,1.2h9.4v-1.8h-8.6c-1.2,0-1.8,0-2.6-0.8
	c-0.8-0.8-1-1.6-1-2.6v-11.4c0-1,0.4-1.6,1-2.2c0.8-0.6,1.2-0.6,2.4-0.6h9v-1.8h-9C406.6,132.2,405.4,132.4,404.4,133.4"/>
<rect x="419.9" y="132.2" width="1.8" height="21.5"/>
<path d="M425.3,137.4v11.4c0,3,2,4.8,5,4.8h9v-1.8h-9c-2,0-3.4-1.2-3.4-3.2v-4.6h12.2v-1.8h-12.2v-4.8c0-1,0.2-1.8,1-2.4
	c0.6-0.6,1.4-0.8,2.4-0.8h9v-1.8h-8.8C427.3,132.2,425.3,134.2,425.3,137.4"/>
<path d="M456.4,150.3L445,133c-0.2-0.4-0.6-1-1.4-1c-0.6,0-1,0.4-1,1v20.7h1.8v-18.1l11.4,17.3c0.2,0.4,0.6,1,1.4,1
	c0.6,0,1-0.4,1-1.4v-20.1h-1.8V150.3z"/>
<path d="M463.4,133.4c-1,0.8-1.6,2.2-1.6,3.8v11.4c0,1.6,0.2,2.8,1.6,4c1.2,1,2,1.2,3.2,1.2h9.4v-1.8h-8.6c-1.2,0-1.8,0-2.6-0.8
	c-0.8-0.8-1-1.6-1-2.6v-11.4c0-1,0.4-1.6,1-2.2c0.8-0.6,1.2-0.6,2.4-0.6h9v-1.8h-9C465.4,132.2,464.4,132.4,463.4,133.4"/>
<path d="M478.3,137.4v11.4c0,3,2,4.8,5,4.8h9v-1.8h-9c-2,0-3.4-1.2-3.4-3.2v-4.6h12.2v-1.8h-12.2v-4.8c0-1,0.2-1.8,1-2.4
	c0.6-0.6,1.4-0.8,2.4-0.8h9v-1.8h-8.8C480.5,132.2,478.3,134.2,478.3,137.4"/>
<path d="M500.8,134.2h8.8v-1.8h-8.8c-1.6,0-2.6,0-4,1.4c-1,1-1.6,2.2-1.6,3.8v1.6c0,3,2,4.6,5.6,4.6h3.2c2.4,0,3.6,1,3.6,3.2v2
	c0,0.8-0.2,1.6-0.8,2.2c-0.8,0.8-1.6,0.8-2.8,0.8h-8.8v1.8h8.8c1.6,0,2.6,0,3.8-1.2c1-1,1.6-2,1.6-3.6v-2c0-3-2-4.8-5.4-4.8h-4
	c-1.8,0-3-1.2-3-3v-1.8C497.1,135.2,498.4,134.2,500.8,134.2"/>
<path d="M252.1,113.3c0,6.2-2.2,8.2-8.6,8.2h-6.2c-6.2,0-8.6-2.2-8.6-8.2V84.2h-2.8V114c0,3.4,0.2,5.6,3.2,8.2
	c2,1.8,3.8,2.2,6.6,2.2h9.8c2.6,0,4-0.2,6.2-2.2c2.6-2.4,3.2-4.8,3.2-8.2V84.2h-2.8C252.1,84.2,252.1,113.3,252.1,113.3z"/>
<path d="M288.4,119.4l-22.3-33.7c-0.4-0.6-1.2-1.8-2.2-1.8c-0.8,0-1.6,0.8-1.6,1.6v38.7h2.8V88.9l22.5,33.9c0.4,0.6,1.2,1.8,2.2,1.8
	c1.6,0,1.6-1.8,1.6-2.4V84.2h-2.8v35.1H288.4z"/>
<rect x="298.7" y="84.2" width="2.8" height="40.1"/>
<path d="M323.5,120.2L309.3,84h-3l15.3,38.1v0.2c0.2,0.8,0.8,2,2,2s1.8-1.2,2-2.2L340.8,84h-3L323.5,120.2z"/>
<path d="M344.6,93.5v21.7c0,5.4,3.6,9,9.2,9h16.9v-2.8H354c-4,0-6.8-2.6-6.8-6.6v-9.2h23.3v-2.8H347v-9.4c0-2.2,0.2-3.6,1.8-4.8
	c1.2-1.2,3-1.8,5-1.8h16.7v-2.8H354C348.4,84.2,344.6,87.9,344.6,93.5"/>
<path d="M380.3,86.9h16.1c4.8,0,7.2,2.2,7.2,6.2v5.6c0,3.6-2.4,5.8-6.4,5.8c-2.6,0-5,0-7.6,0c-2.6,0-5,0-7.6,0c-0.4,0-1.2,0-1.8,0.4
	V86.9H380.3z M397.4,107.5c5.6,0,9-3.4,9-8.8v-5.4c0-6-3.6-9.2-10-9.2h-18.9v40.1h2.8v-16.7c0.2,0.2,0.4,0.4,0.8,0.6l21.3,16.1h4.6
	l-22.3-16.7H397.4z"/>
<path d="M415.3,86.5c-2.2,2.2-2.8,4.4-2.8,7v3.2c0,5.4,3.8,8.4,10.4,8.4h6c5,0,7.2,2,7.2,6.2v3.8c0,1.8-0.2,3.2-1.6,4.4
	c-1.6,1.4-3.4,1.6-5.4,1.6h-16.5v2.8h16.3c3,0,4.8,0,7-2c2-1.8,2.8-3.8,2.8-6.8v-4c0-5.6-3.6-8.8-9.8-8.8h-7.6c-3.8,0-6.2-2.4-6.2-6
	v-3c0-4.4,2.4-6.4,7.2-6.4h16.5V84h-16.5C419.5,84.2,417.5,84.2,415.3,86.5"/>
<rect x="445.4" y="84.2" width="2.8" height="40.1"/>
<polygon points="453.4,86.9 465,86.9 465,124.2 467.6,124.2 467.6,86.9 479.3,86.9 479.3,84.2 453.4,84.2 "/>
<polygon points="508.8,84.2 497.1,103.9 485.7,84.2 482.5,84.2 495.9,106.9 495.9,124.2 498.6,124.2 498.6,106.9 512,84.2 "/>
</svg>
