<svg version="1.1" id="Layer_1" xmlns="http://www.w3.org/2000/svg" xmlns:xlink="http://www.w3.org/1999/xlink" x="0px" y="0px"
	 viewBox="0 0 256 256" style="enable-background:new 0 0 256 256;" xml:space="preserve" aria-labelledby="gh_title gh_desc" role="img">
<title id="gh_title">GitHub Logo</title>
	<desc id="gh_desc">A GitHub social logo depicting Octocat, a combination of cat and octopus.</desc>
<path d="M128,41.74c-48.87,0-88.45,39.6-88.45,88.45c0,39.09,25.34,72.23,60.48,83.92c4.42,0.83,6.04-1.9,6.04-4.25
	c0-2.1-0.07-7.67-0.11-15.04c-24.6,5.34-29.79-11.87-29.79-11.87c-4.02-10.21-9.84-12.94-9.84-12.94c-8.01-5.48,0.62-5.37,0.62-5.37
	c8.88,0.62,13.55,9.11,13.55,9.11c7.89,13.53,20.7,9.62,25.76,7.36c0.8-5.72,3.07-9.62,5.6-11.83
	c-19.64-2.21-40.29-9.82-40.29-43.71c0-9.66,3.43-17.54,9.1-23.73c-1-2.23-3.98-11.23,0.77-23.41c0,0,7.41-2.37,24.32,9.07
	c7.08-1.97,14.59-2.94,22.11-2.99c7.52,0.04,15.04,1.02,22.11,2.99c16.81-11.44,24.21-9.07,24.21-9.07
	c4.75,12.18,1.77,21.18,0.88,23.41c5.64,6.19,9.07,14.08,9.07,23.73c0,33.98-20.68,41.46-40.36,43.64c3.1,2.65,5.97,8.08,5.97,16.36
	c0,11.84-0.11,21.35-0.11,24.22c0,2.32,1.55,5.09,6.08,4.2c35.39-11.6,60.71-44.77,60.71-83.8C216.45,81.34,176.85,41.74,128,41.74"
	/>
</svg>
