<svg version="1.1" xmlns="http://www.w3.org/2000/svg" xmlns:xlink="http://www.w3.org/1999/xlink" x="0px" y="0px"
	 viewBox="0 0 256 256" style="enable-background:new 0 0 256 256;" xml:space="preserve" aria-labelledby="google_title google_desc" role="img">
<title id="google_title">Google+ Logo</title>
<desc id="google_desc">The Google+ logo represented by a capital G and a + letter.</desc>
<path id="google" d="M86.1,201.4c-40.5,0-73.4-32.8-73.4-73.4c0-40.5,32.8-73.4,73.4-73.4c19.8,0,36.3,7.2,49.2,19.2L115.3,93
	c-5.4-5.2-14.9-11.3-29.2-11.3c-25,0-45.4,20.7-45.4,46.4c0,25.6,20.4,46.4,45.4,46.4c29,0,39.9-20.9,41.6-31.6H86.1v-25.2h69.3
	c0.7,3.7,1.2,7.4,1.2,12.2C156.5,171.6,128.4,201.4,86.1,201.4z M243.3,138.5h-20.9v20.9h-21v-20.9h-20.9v-21h20.9V96.6h21v20.9
	h20.9V138.5z"/>
</svg>