<svg version="1.1" xmlns="http://www.w3.org/2000/svg" xmlns:xlink="http://www.w3.org/1999/xlink" x="0px" y="0px"
	 viewBox="0 0 500 95.5" enable-background="new 0 0 500 95.5" xml:space="preserve" shape-rendering="geometricPrecision" class="logo_img" aria-labelledby="pie_title pie_desc" role="img">
  <title id="pie_title">Playful Interactive Environments Logo</title>
  <desc id="pie_desc">The logo of the research group Playful Interactive Environments.</desc>
<g>
	<polygon fill="#048784" points="27.6,95.5 0,47.8 55.2,47.8"/>
	<polygon fill="#048784" points="82.7,0 110.3,47.8 55.2,47.8"/>
	<polygon fill="#A9C853" points="137.9,0 165.5,47.8 110.3,47.8"/>
	<polygon fill="#2CA9A9" points="0,47.8 27.6,0 82.7,0 55.2,47.8"/>
	<polygon fill="#52AA47" points="82.7,95.5 110.3,47.8 165.5,47.8 137.9,95.5"/>
	<polygon fill="#AA2039" points="248.2,95.5 220.6,47.8 165.5,47.8 193.1,95.5"/>
	<polygon fill="#E53862" points="165.5,47.8 193.1,0 248.2,0 220.6,47.8"/>
	<g>
		<path d="M274.5,14.8v7.5H272V0h8.1c4.9,0,7.1,2.3,7.1,7.2c0,4.9-2.3,7.6-7.1,7.6H274.5z M280.1,12.6c3.3,0,4.6-2,4.6-5.4
			c0-3.4-1.4-5-4.6-5h-5.6v10.4H280.1z"/>
		<path d="M290.6,22.3V0h2.5v20h9.8v2.2H290.6z"/>
		<path d="M313,0h5.4l6.1,22.3H322l-1.6-5.7h-9.5l-1.6,5.7h-2.4L313,0z M311.4,14.3h8.4l-3.4-12.2h-1.7L311.4,14.3z"/>
		<path d="M334.1,22.3h-2.5v-9.4L324.5,0h2.8l5.5,10.4L338.4,0h2.8l-7.1,12.9V22.3z"/>
		<path d="M345.1,0h13.3v2.2h-10.8v8.7h9.2v2.2h-9.2v9.2h-2.5V0z"/>
		<path d="M369.6,20.4c3.5,0,5.4-1.4,5.4-4.8V0h2.4v15.5c0,5.1-2.8,7.1-7.9,7.1c-4.9,0-7.7-2-7.7-7.1V0h2.5v15.6
			C364.4,19,366.3,20.4,369.6,20.4z"/>
		<path d="M383.7,22.3V0h2.5v20h11.2v2.2H383.7z"/>
		<path d="M271.9,73.2h13.5v2.2h-11.1v7.7h9.1v2.2h-9.1v8h11.1v2.2h-13.5V73.2z"/>
		<path d="M289.7,73.2h4.6l8.5,20.1h0.7V73.2h2.4v22.3h-4.5l-8.7-20.1h-0.6v20.1h-2.5V73.2z"/>
		<path d="M326.7,73.2l-5.8,22.3h-5.5l-5.8-22.3h2.6l5.1,20.1h1.8l5.1-20.1H326.7z"/>
		<path d="M330.7,73.2h2.5v22.3h-2.5V73.2z"/>
		<path d="M341.6,87v8.5h-2.5V73.2h8.2c4.7,0,7.1,2.1,7.1,6.8c0,3.3-1.3,5.6-4.1,6.5l4.3,9h-2.7l-4-8.5H341.6z M347.3,75.4h-5.8v9.4
			h5.8c3.3,0,4.5-2,4.5-4.8C351.9,76.9,350.4,75.4,347.3,75.4z"/>
		<path d="M358.5,84.5c0-7.3,1.9-11.6,8.8-11.6c6.9,0,8.8,4.2,8.8,11.6c0,7.7-1.9,11.4-8.8,11.4C360.3,95.8,358.5,91.9,358.5,84.5z
			 M373.5,84.5c0-6-1.2-9.4-6.2-9.4c-5.1,0-6.2,3.3-6.2,9.4c0,6.1,1.1,9.2,6.2,9.2C372.4,93.6,373.5,90.7,373.5,84.5z"/>
		<path d="M380.6,73.2h4.6l8.5,20.1h0.7V73.2h2.4v22.3h-4.5l-8.7-20.1h-0.6v20.1h-2.5V73.2z"/>
		<path d="M403.3,73.2h4.5l6.3,18.8l6.3-18.8h4.5v22.3h-2.5V75.9h-0.5l-6.5,18.8h-2.8l-6.5-18.8h-0.5v19.6h-2.5V73.2z"/>
		<path d="M430.3,73.2h13.5v2.2h-11.1v7.7h9.1v2.2h-9.1v8h11.1v2.2h-13.5V73.2z"/>
		<path d="M448.6,73.2h4.6l8.5,20.1h0.7V73.2h2.4v22.3h-4.5l-8.7-20.1h-0.6v20.1h-2.5V73.2z"/>
		<path d="M468,73.2h16.1v2.2h-6.8v20h-2.4v-20H468V73.2z"/>
		<path d="M499.3,75.6c0,0-4.5-0.5-6.3-0.5c-3.2,0-4.8,1.1-4.8,3.6c0,2.9,1.5,3.4,5.4,4.2c4.4,1,6.4,2.1,6.4,6
			c0,4.9-2.7,6.9-7.1,6.9c-2.6,0-7-0.7-7-0.7l0.3-2.1c0,0,4.4,0.6,6.7,0.6c3.2,0,4.8-1.4,4.8-4.5c0-2.5-1.3-3.2-5-3.9
			c-4.6-1-6.9-2.1-6.9-6.3c0-4.3,2.8-6,7.2-6c2.6,0,6.7,0.6,6.7,0.6L499.3,75.6z"/>
		<path d="M271.9,36.7h2.5v22.3h-2.5V36.7z"/>
		<path d="M281.2,36.7h4.6l8.5,20.1h0.7V36.7h2.4v22.3h-4.5l-8.7-20.1h-0.6v20.1h-2.5V36.7z"/>
		<path d="M300.6,36.7h16.1v2.2h-6.8v20h-2.4v-20h-6.9V36.7z"/>
		<path d="M319.9,36.7h13.5v2.2h-11.1v7.7h9.1v2.2h-9.1v8h11.1v2.2h-13.5V36.7z"/>
		<path d="M340.6,50.4v8.5h-2.5V36.7h8.2c4.7,0,7.1,2.1,7.1,6.8c0,3.3-1.3,5.6-4.1,6.5l4.3,9h-2.7l-4-8.5H340.6z M346.4,38.9h-5.8
			v9.4h5.8c3.3,0,4.5-2,4.5-4.8C350.9,40.4,349.5,38.9,346.4,38.9z"/>
		<path d="M362.8,36.7h5.4l6.1,22.3h-2.4l-1.6-5.7h-9.5l-1.6,5.7h-2.4L362.8,36.7z M361.3,51h8.4l-3.4-12.2h-1.7L361.3,51z"/>
		<path d="M390.9,58.6c-1.6,0.3-4,0.7-6.1,0.7c-6.7,0-8.1-4.1-8.1-11.4c0-7.5,1.4-11.5,8.1-11.5c2.3,0,4.7,0.4,6.1,0.7l-0.1,2.1
			c-1.4-0.3-4.1-0.6-5.8-0.6c-5,0-5.8,3-5.8,9.3c0,6.2,0.8,9.2,5.9,9.2c1.8,0,4.2-0.3,5.7-0.6L390.9,58.6z"/>
		<path d="M393.1,36.7h16.1v2.2h-6.8v20H400v-20h-6.9V36.7z"/>
		<path d="M413.3,36.7h2.5v22.3h-2.5V36.7z"/>
		<path d="M437.8,36.7l-5.8,22.3h-5.5l-5.8-22.3h2.6l5.1,20.1h1.8l5.1-20.1H437.8z"/>
		<path d="M442.7,36.7h13.5v2.2h-11.1v7.7h9.1v2.2h-9.1v8h11.1v2.2h-13.5V36.7z"/>
	</g>
</g>
</svg>
