<svg version="1.1" xmlns="http://www.w3.org/2000/svg" xmlns:xlink="http://www.w3.org/1999/xlink" x="0px" y="0px"
	 viewBox="0 0 256 256" style="enable-background:new 0 0 256 256;" xml:space="preserve" aria-labelledby="youtube_title youtube_desc" role="img">
<title id="youtube_title">YouTube Logo</title>
<desc id="youtube_desc">The YouTube logo represented by a play button in a stylized screen.</desc>
<path id="youtube" d="M172.6,128c0,2.9-1.2,5-3.5,6.3l-59.4,37.1c-2.4,1.5-4.9,1.6-7.5,0.2c-2.6-1.4-3.8-3.6-3.8-6.5V90.9
	c0-2.9,1.3-5.1,3.8-6.5c1.2-0.6,2.4-0.9,3.6-0.9c1.5,0,2.9,0.4,3.9,1.2l59.4,37.1C171.4,123,172.6,125.1,172.6,128z M232,128
	c0-7.4,0-13.2-0.1-17.4c-0.1-4.2-0.4-9.5-1-15.8c-0.6-6.4-1.5-12.1-2.6-17.1c-1.2-5.6-3.9-10.4-8-14.3s-8.9-6.1-14.4-6.7
	c-17.2-1.9-43.1-2.9-77.9-2.9s-60.7,1-77.9,2.9c-5.5,0.6-10.3,2.9-14.4,6.7s-6.8,8.6-8.1,14.3c-1.1,5-1.9,10.7-2.5,17.1
	c-0.6,6.4-0.9,11.7-1,15.8S24,120.6,24,128c0,7.4,0,13.2,0.1,17.4c0.1,4.2,0.4,9.5,1,15.8c0.6,6.4,1.5,12.1,2.6,17.1
	c1.2,5.6,3.9,10.4,8,14.3s8.9,6.1,14.4,6.7c17.2,1.9,43.1,2.9,77.9,2.9s60.7-1,77.9-2.9c5.5-0.6,10.3-2.9,14.4-6.7s6.8-8.6,8.1-14.3
	c1.1-5,1.9-10.7,2.5-17.1c0.6-6.4,0.9-11.7,1-15.8C231.9,141.2,232,135.4,232,128z"/>
</svg>